<svg width="12" height="8" viewBox="0 0 12 8" fill="none" xmlns="http://www.w3.org/2000/svg">
<path d="M6 6.5L5.46967 7.03033C5.61032 7.17098 5.80109 7.25 6 7.25C6.19891 7.25 6.38968 7.17098 6.53033 7.03033L6 6.5ZM11.5303 2.03033C11.8232 1.73744 11.8232 1.26256 11.5303 0.969669C11.2374 0.676776 10.7626 0.676776 10.4697 0.969669L11.5303 2.03033ZM1.53033 0.96967C1.23744 0.676777 0.762563 0.676777 0.46967 0.96967C0.176776 1.26256 0.176776 1.73744 0.46967 2.03033L1.53033 0.96967ZM6.53033 7.03033L11.5303 2.03033L10.4697 0.969669L5.46967 5.96967L6.53033 7.03033ZM6.53033 5.96967L1.53033 0.96967L0.46967 2.03033L5.46967 7.03033L6.53033 5.96967Z" fill="#347DFE"/>
</svg>
