<svg width="31" height="30" viewBox="0 0 31 30" fill="none" xmlns="http://www.w3.org/2000/svg">
<path fill-rule="evenodd" clip-rule="evenodd" d="M9.45301 0.421008C11.017 0.349008 11.5157 0.333008 15.4997 0.333008C19.4837 0.333008 19.9823 0.350341 21.545 0.421008C23.1077 0.491674 24.1743 0.741008 25.1077 1.10234C26.085 1.47167 26.9717 2.04901 27.705 2.79567C28.4517 3.52767 29.0277 4.41301 29.3957 5.39167C29.7583 6.32501 30.0063 7.39167 30.0783 8.95167C30.1503 10.5183 30.1663 11.017 30.1663 14.9997C30.1663 18.9837 30.149 19.4823 30.0783 21.0463C30.0077 22.6063 29.7583 23.673 29.3957 24.6063C29.0277 25.5851 28.4507 26.4719 27.705 27.205C26.9717 27.9517 26.085 28.5277 25.1077 28.8957C24.1743 29.2583 23.1077 29.5063 21.5477 29.5783C19.9823 29.6503 19.4837 29.6663 15.4997 29.6663C11.5157 29.6663 11.017 29.649 9.45301 29.5783C7.89301 29.5077 6.82634 29.2583 5.89301 28.8957C4.91424 28.5276 4.02743 27.9507 3.29434 27.205C2.54818 26.4726 1.97076 25.5862 1.60234 24.6077C1.24101 23.6743 0.993008 22.6077 0.921008 21.0477C0.849008 19.481 0.833008 18.9823 0.833008 14.9997C0.833008 11.0157 0.850341 10.517 0.921008 8.95434C0.991674 7.39167 1.24101 6.32501 1.60234 5.39167C1.9713 4.41312 2.54917 3.52676 3.29567 2.79434C4.02773 2.04834 4.91364 1.47093 5.89167 1.10234C6.82501 0.741008 7.89167 0.493008 9.45167 0.421008H9.45301ZM21.4263 3.06101C19.8797 2.99034 19.4157 2.97567 15.4997 2.97567C11.5837 2.97567 11.1197 2.99034 9.57301 3.06101C8.14234 3.12634 7.36634 3.36501 6.84901 3.56634C6.16501 3.83301 5.67567 4.14901 5.16234 4.66234C4.67573 5.13574 4.30125 5.71205 4.06634 6.34901C3.86501 6.86634 3.62634 7.64234 3.56101 9.07301C3.49034 10.6197 3.47567 11.0837 3.47567 14.9997C3.47567 18.9157 3.49034 19.3797 3.56101 20.9263C3.62634 22.357 3.86501 23.133 4.06634 23.6503C4.30101 24.2863 4.67567 24.8637 5.16234 25.337C5.63567 25.8237 6.21301 26.1983 6.84901 26.433C7.36634 26.6343 8.14234 26.873 9.57301 26.9383C11.1197 27.009 11.5823 27.0237 15.4997 27.0237C19.417 27.0237 19.8797 27.009 21.4263 26.9383C22.857 26.873 23.633 26.6343 24.1503 26.433C24.8343 26.1663 25.3237 25.8503 25.837 25.337C26.3237 24.8637 26.6983 24.2863 26.933 23.6503C27.1343 23.133 27.373 22.357 27.4383 20.9263C27.509 19.3797 27.5237 18.9157 27.5237 14.9997C27.5237 11.0837 27.509 10.6197 27.4383 9.07301C27.373 7.64234 27.1343 6.86634 26.933 6.34901C26.6663 5.66501 26.3503 5.17567 25.837 4.66234C25.3636 4.17577 24.7873 3.80129 24.1503 3.56634C23.633 3.36501 22.857 3.12634 21.4263 3.06101ZM13.6263 19.521C14.6726 19.9565 15.8375 20.0153 16.9222 19.6873C18.007 19.3593 18.9442 18.6649 19.5738 17.7227C20.2034 16.7804 20.4864 15.6488 20.3744 14.5211C20.2624 13.3935 19.7623 12.3396 18.9597 11.5397C18.448 11.0283 17.8293 10.6368 17.1481 10.3932C16.4669 10.1496 15.7402 10.0602 15.0203 10.1312C14.3004 10.2022 13.6052 10.4319 12.9847 10.8038C12.3643 11.1758 11.834 11.6807 11.4321 12.2821C11.0302 12.8836 10.7666 13.5667 10.6604 14.2823C10.5541 14.9979 10.6079 15.7281 10.8177 16.4204C11.0276 17.1127 11.3883 17.7498 11.874 18.286C12.3596 18.8221 12.9581 19.2439 13.6263 19.521ZM10.169 9.66901C10.869 8.96897 11.7001 8.41368 12.6147 8.03482C13.5294 7.65597 14.5097 7.46097 15.4997 7.46097C16.4897 7.46097 17.47 7.65597 18.3846 8.03482C19.2992 8.41368 20.1303 8.96897 20.8303 9.66901C21.5304 10.369 22.0857 11.2001 22.4645 12.1147C22.8434 13.0294 23.0384 14.0097 23.0384 14.9997C23.0384 15.9897 22.8434 16.97 22.4645 17.8846C22.0857 18.7992 21.5304 19.6303 20.8303 20.3303C19.4166 21.7441 17.4991 22.5384 15.4997 22.5384C13.5003 22.5384 11.5828 21.7441 10.169 20.3303C8.75523 18.9166 7.96097 16.9991 7.96097 14.9997C7.96097 13.0003 8.75523 11.0828 10.169 9.66901ZM24.7103 8.58367C24.8838 8.42003 25.0227 8.22325 25.1187 8.00497C25.2148 7.7867 25.2661 7.55137 25.2696 7.31291C25.273 7.07446 25.2286 6.83774 25.139 6.61675C25.0493 6.39577 24.9163 6.19502 24.7476 6.02639C24.579 5.85776 24.3782 5.72468 24.1573 5.63503C23.9363 5.54538 23.6996 5.50098 23.4611 5.50445C23.2226 5.50793 22.9873 5.55921 22.769 5.65527C22.5508 5.75133 22.354 5.8902 22.1903 6.06367C21.8721 6.40105 21.6978 6.84917 21.7046 7.31291C21.7114 7.77666 21.8986 8.21951 22.2265 8.54746C22.5545 8.87542 22.9974 9.06264 23.4611 9.06941C23.9248 9.07617 24.373 8.90193 24.7103 8.58367Z" fill="white"/>
</svg>
