<svg width="27" height="28" viewBox="0 0 27 28" fill="none" xmlns="http://www.w3.org/2000/svg">
<path fill-rule="evenodd" clip-rule="evenodd" d="M10.0723 9.95899H15.0243V12.4257C15.7377 11.007 17.567 9.73233 20.315 9.73233C25.583 9.73233 26.8337 12.5563 26.8337 17.7377V27.3337H21.5003V18.9177C21.5003 15.967 20.787 14.303 18.971 14.303C16.4523 14.303 15.4057 16.0963 15.4057 18.9163V27.3337H10.0723V9.95899ZM0.926992 27.107H6.26033V9.73233H0.926992V27.107ZM7.02433 4.06699C7.02452 4.51403 6.93587 4.95664 6.76351 5.36911C6.59115 5.78158 6.33853 6.15568 6.02033 6.46966C5.37553 7.11049 4.50274 7.4692 3.59366 7.46699C2.68618 7.46638 1.81541 7.10859 1.16966 6.47099C0.852607 6.15594 0.60084 5.78142 0.428784 5.3689C0.256727 4.95638 0.167764 4.51396 0.166992 4.06699C0.166992 3.16433 0.526992 2.30033 1.17099 1.66299C1.81617 1.02454 2.68731 0.666593 3.59499 0.666993C4.50433 0.666993 5.37633 1.02566 6.02033 1.66299C6.66299 2.30033 7.02433 3.16433 7.02433 4.06699Z" fill="white"/>
</svg>
