<svg width="32" height="26" viewBox="0 0 32 26" fill="none" xmlns="http://www.w3.org/2000/svg">
<path d="M31.0237 3.58244C29.9104 4.07578 28.7144 4.40911 27.457 4.55978C28.7544 3.7835 29.7249 2.56173 30.1877 1.12244C28.9688 1.84643 27.6348 2.35604 26.2437 2.62911C25.3082 1.63026 24.0691 0.968212 22.7188 0.745742C21.3685 0.523273 19.9825 0.752832 18.776 1.39878C17.5695 2.04473 16.6101 3.07093 16.0466 4.31805C15.4831 5.56517 15.3471 6.96344 15.6597 8.29578C13.1899 8.17177 10.7739 7.52984 8.56826 6.41165C6.36265 5.29346 4.41681 3.72399 2.85702 1.80511C2.32369 2.72511 2.01702 3.79178 2.01702 4.92778C2.01643 5.95044 2.26827 6.95743 2.7502 7.85942C3.23212 8.76141 3.92924 9.53049 4.77969 10.0984C3.79339 10.0671 2.82885 9.80056 1.96636 9.32111V9.40111C1.96626 10.8354 2.4624 12.2256 3.3706 13.3358C4.2788 14.4459 5.54312 15.2077 6.94902 15.4918C6.03407 15.7394 5.07481 15.7759 4.14369 15.5984C4.54035 16.8326 5.31302 17.9118 6.35351 18.685C7.39401 19.4582 8.65025 19.8867 9.94636 19.9104C7.74613 21.6377 5.02887 22.5746 2.23169 22.5704C1.7362 22.5706 1.24113 22.5416 0.749023 22.4838C3.58833 24.3093 6.89348 25.2782 10.269 25.2744C21.6957 25.2744 27.9424 15.8104 27.9424 7.60244C27.9424 7.33578 27.9357 7.06644 27.9237 6.79978C29.1387 5.92108 30.1876 4.83297 31.021 3.58644L31.0237 3.58244Z" fill="white"/>
</svg>
