<svg width="14" height="14" viewBox="0 0 14 14" fill="none" xmlns="http://www.w3.org/2000/svg">
<path d="M1.236 11.236C0.814053 11.6579 0.814053 12.3421 1.236 12.764C1.65795 13.1859 2.34205 13.1859 2.764 12.764L1.236 11.236ZM13.0805 2C13.0805 1.40328 12.5967 0.91954 12 0.91954L2.27586 0.91954C1.67913 0.91954 1.1954 1.40328 1.1954 2C1.1954 2.59672 1.67913 3.08046 2.27586 3.08046L10.9195 3.08046L10.9195 11.7241C10.9195 12.3209 11.4033 12.8046 12 12.8046C12.5967 12.8046 13.0805 12.3209 13.0805 11.7241L13.0805 2ZM2.764 12.764L12.764 2.764L11.236 1.236L1.236 11.236L2.764 12.764Z" fill="white"/>
</svg>
